<svg width="149" height="168" viewBox="0 0 149 168" fill="none" xmlns="http://www.w3.org/2000/svg">
<path fill-rule="evenodd" clip-rule="evenodd" d="M43.4914 25.2117C45.9627 10.8925 58.4437 0 73.4689 0H75.8115L75.8191 13.7423C87.6918 5.36453 104.219 6.48785 114.844 17.1122L116.5 18.7687L106.788 28.4914C121.108 30.9627 132 43.4437 132 58.4689V60.8115L118.258 60.8191C126.635 72.6918 125.512 89.2194 114.888 99.8437L113.231 101.5L103.509 91.7883C101.037 106.108 88.5563 117 73.5311 117H71.1885L71.1809 103.258C59.3082 111.635 42.7806 110.512 32.1562 99.8877L30.4998 98.2313L40.2116 88.5086C25.8924 86.0373 15 73.5563 15 58.5311V56.1885L28.7423 56.1809C20.3645 44.3082 21.4879 27.7806 32.1122 17.1563L33.7687 15.4998L43.4914 25.2117ZM43.0626 31.4093L33.845 22.2019C25.4082 32.3122 25.9356 47.3732 35.427 56.8646C44.1682 65.6058 57.6334 66.744 67.6048 60.2792C53.9216 57.6073 43.5203 45.7634 43.0626 31.4093ZM75.2792 64.3952C72.6073 78.0784 60.7633 88.4797 46.4093 88.9374L37.2018 98.155C47.3122 106.592 62.3732 106.064 71.8646 96.573C80.6058 87.8318 81.744 74.3667 75.2792 64.3952ZM79.3952 56.7208C93.0784 59.3927 103.48 71.2366 103.937 85.5907L113.155 94.7981C121.592 84.6878 121.064 69.6268 111.573 60.1354C102.832 51.3942 89.3666 50.256 79.3952 56.7208ZM71.7208 52.6048C74.3927 38.9216 86.2366 28.5203 100.591 28.0626L109.798 18.845C99.6878 10.4082 84.6268 10.9356 75.1354 20.427C66.3941 29.1682 65.2559 42.6334 71.7208 52.6048ZM73.4871 58.4689L73.4689 58.4871V58.5129L73.4871 58.5311H73.5129L73.5311 58.5129V58.4871L73.5129 58.4689H73.4871Z" fill="black"/>
<path d="M20.1009 154.16C18.3515 154.16 16.8155 153.797 15.4929 153.072C14.1702 152.325 13.1355 151.312 12.3889 150.032C11.6422 148.731 11.2689 147.248 11.2689 145.584C11.2689 143.92 11.6209 142.448 12.3249 141.168C13.0502 139.888 14.0315 138.885 15.2689 138.16C16.5275 137.413 17.9355 137.04 19.4929 137.04C21.0715 137.04 22.4689 137.403 23.6849 138.128C24.9222 138.832 25.8929 139.835 26.5969 141.136C27.3009 142.416 27.6529 143.899 27.6529 145.584C27.6529 145.691 27.6422 145.808 27.6209 145.936C27.6209 146.043 27.6209 146.16 27.6209 146.288H12.9969V144.592H26.4049L25.5089 145.264C25.5089 144.048 25.2422 142.971 24.7089 142.032C24.1969 141.072 23.4929 140.325 22.5969 139.792C21.7009 139.259 20.6662 138.992 19.4929 138.992C18.3409 138.992 17.3062 139.259 16.3889 139.792C15.4715 140.325 14.7569 141.072 14.2449 142.032C13.7329 142.992 13.4769 144.091 13.4769 145.328V145.68C13.4769 146.96 13.7542 148.091 14.3089 149.072C14.8849 150.032 15.6742 150.789 16.6769 151.344C17.7009 151.877 18.8635 152.144 20.1649 152.144C21.1889 152.144 22.1382 151.963 23.0129 151.6C23.9089 151.237 24.6769 150.683 25.3169 149.936L26.5969 151.408C25.8502 152.304 24.9115 152.987 23.7809 153.456C22.6715 153.925 21.4449 154.16 20.1009 154.16ZM32.3086 154V130.256H34.5806V154H32.3086ZM48.7654 154V131.6H53.9494V149.776H65.1814V154H48.7654ZM75.8554 154.256C74.0207 154.256 72.3887 153.872 70.9594 153.104C69.5514 152.336 68.4314 151.291 67.5994 149.968C66.7887 148.624 66.3834 147.099 66.3834 145.392C66.3834 143.664 66.7887 142.139 67.5994 140.816C68.4314 139.472 69.5514 138.427 70.9594 137.68C72.3887 136.912 74.0207 136.528 75.8554 136.528C77.6687 136.528 79.29 136.912 80.7194 137.68C82.1487 138.427 83.2687 139.461 84.0794 140.784C84.89 142.107 85.2954 143.643 85.2954 145.392C85.2954 147.099 84.89 148.624 84.0794 149.968C83.2687 151.291 82.1487 152.336 80.7194 153.104C79.29 153.872 77.6687 154.256 75.8554 154.256ZM75.8554 150.16C76.6874 150.16 77.434 149.968 78.0954 149.584C78.7567 149.2 79.2794 148.656 79.6634 147.952C80.0474 147.227 80.2394 146.373 80.2394 145.392C80.2394 144.389 80.0474 143.536 79.6634 142.832C79.2794 142.128 78.7567 141.584 78.0954 141.2C77.434 140.816 76.6874 140.624 75.8554 140.624C75.0234 140.624 74.2767 140.816 73.6154 141.2C72.954 141.584 72.4207 142.128 72.0154 142.832C71.6314 143.536 71.4394 144.389 71.4394 145.392C71.4394 146.373 71.6314 147.227 72.0154 147.952C72.4207 148.656 72.954 149.2 73.6154 149.584C74.2767 149.968 75.0234 150.16 75.8554 150.16ZM95.6721 154.256C93.6455 154.256 92.0668 153.744 90.9361 152.72C89.8055 151.675 89.2401 150.128 89.2401 148.08V132.976H94.2321V148.016C94.2321 148.741 94.4241 149.307 94.8081 149.712C95.1921 150.096 95.7148 150.288 96.3761 150.288C97.1655 150.288 97.8375 150.075 98.3921 149.648L99.7361 153.168C99.2241 153.531 98.6055 153.808 97.8801 154C97.1761 154.171 96.4401 154.256 95.6721 154.256ZM86.5841 140.624V136.784H98.5201V140.624H86.5841ZM109.802 154.256C108.373 154.256 107.093 153.979 105.962 153.424C104.853 152.869 103.989 152.027 103.37 150.896C102.752 149.744 102.442 148.283 102.442 146.512V136.784H107.434V145.776C107.434 147.205 107.733 148.261 108.33 148.944C108.949 149.605 109.813 149.936 110.922 149.936C111.69 149.936 112.373 149.776 112.97 149.456C113.568 149.115 114.037 148.603 114.378 147.92C114.72 147.216 114.89 146.341 114.89 145.296V136.784H119.882V154H115.146V149.264L116.01 150.64C115.434 151.835 114.581 152.741 113.45 153.36C112.341 153.957 111.125 154.256 109.802 154.256ZM130.299 154.256C128.827 154.256 127.408 154.085 126.043 153.744C124.699 153.381 123.632 152.933 122.843 152.4L124.507 148.816C125.296 149.307 126.224 149.712 127.291 150.032C128.379 150.331 129.446 150.48 130.491 150.48C131.643 150.48 132.454 150.341 132.923 150.064C133.414 149.787 133.659 149.403 133.659 148.912C133.659 148.507 133.467 148.208 133.083 148.016C132.72 147.803 132.23 147.643 131.611 147.536C130.992 147.429 130.31 147.323 129.563 147.216C128.838 147.109 128.102 146.971 127.355 146.8C126.608 146.608 125.926 146.331 125.307 145.968C124.688 145.605 124.187 145.115 123.803 144.496C123.44 143.877 123.259 143.077 123.259 142.096C123.259 141.008 123.568 140.048 124.187 139.216C124.827 138.384 125.744 137.733 126.939 137.264C128.134 136.773 129.563 136.528 131.227 136.528C132.4 136.528 133.595 136.656 134.811 136.912C136.027 137.168 137.04 137.541 137.851 138.032L136.187 141.584C135.355 141.093 134.512 140.763 133.659 140.592C132.827 140.4 132.016 140.304 131.227 140.304C130.118 140.304 129.307 140.453 128.795 140.752C128.283 141.051 128.027 141.435 128.027 141.904C128.027 142.331 128.208 142.651 128.571 142.864C128.955 143.077 129.456 143.248 130.075 143.376C130.694 143.504 131.366 143.621 132.091 143.728C132.838 143.813 133.584 143.952 134.331 144.144C135.078 144.336 135.75 144.613 136.347 144.976C136.966 145.317 137.467 145.797 137.851 146.416C138.235 147.013 138.427 147.803 138.427 148.784C138.427 149.851 138.107 150.8 137.467 151.632C136.827 152.443 135.899 153.083 134.683 153.552C133.488 154.021 132.027 154.256 130.299 154.256Z" fill="#050505"/>
</svg>
