<svg width="117" height="117" viewBox="0 0 117 117" fill="none" xmlns="http://www.w3.org/2000/svg">
<path fill-rule="evenodd" clip-rule="evenodd" d="M28.4914 25.2117C30.9627 10.8925 43.4437 0 58.4689 0H60.8115L60.8191 13.7423C72.6918 5.36453 89.2193 6.48785 99.8437 17.1122L101.5 18.7687L91.7883 28.4914C106.108 30.9627 117 43.4437 117 58.4689V60.8115L103.258 60.8191C111.635 72.6918 110.512 89.2194 99.8878 99.8437L98.2313 101.5L88.5086 91.7883C86.0373 106.108 73.5563 117 58.5311 117H56.1885L56.1809 103.258C44.3082 111.635 27.7806 110.512 17.1562 99.8877L15.4998 98.2313L25.2116 88.5086C10.8924 86.0373 0 73.5563 0 58.5311V56.1885L13.7423 56.1809C5.36455 44.3082 6.48787 27.7806 17.1122 17.1563L18.7687 15.4998L28.4914 25.2117ZM28.0626 31.4093L18.845 22.2019C10.4082 32.3122 10.9356 47.3732 20.427 56.8646C29.1682 65.6058 42.6334 66.744 52.6048 60.2792C38.9216 57.6073 28.5203 45.7634 28.0626 31.4093ZM60.2792 64.3952C57.6073 78.0784 45.7633 88.4797 31.4093 88.9374L22.2018 98.155C32.3122 106.592 47.3732 106.064 56.8646 96.573C65.6058 87.8318 66.744 74.3667 60.2792 64.3952ZM64.3952 56.7208C78.0784 59.3927 88.4797 71.2366 88.9374 85.5907L98.155 94.7981C106.592 84.6878 106.064 69.6268 96.573 60.1354C87.8318 51.3942 74.3666 50.256 64.3952 56.7208ZM56.7208 52.6048C59.3927 38.9216 71.2366 28.5203 85.5907 28.0626L94.7981 18.845C84.6878 10.4082 69.6268 10.9356 60.1354 20.427C51.3941 29.1682 50.2559 42.6334 56.7208 52.6048ZM58.4871 58.4689L58.4689 58.4871V58.5129L58.4871 58.5311H58.5129L58.5311 58.5129V58.4871L58.5129 58.4689H58.4871Z" fill="black"/>
</svg>
