<svg width="118" height="31" viewBox="0 0 118 31" fill="none" xmlns="http://www.w3.org/2000/svg">
<path fill-rule="evenodd" clip-rule="evenodd" d="M7.30548 6.46453C7.93914 2.79294 11.1394 0 14.992 0H15.5927L15.5946 3.52366C18.6389 1.37552 22.8768 1.66355 25.601 4.38775L26.0257 4.81249L23.5355 7.30548C27.2071 7.93914 30 11.1394 30 14.992V15.5927L26.4763 15.5946C28.6245 18.6389 28.3364 22.8768 25.6122 25.601L25.1875 26.0257L22.6945 23.5355C22.0609 27.2071 18.8606 30 15.008 30H14.4073L14.4054 26.4763C11.3611 28.6245 7.12324 28.3364 4.39904 25.6122L3.9743 25.1875L6.46452 22.6945C2.79294 22.0609 0 18.8606 0 15.008V14.4073L3.52366 14.4054C1.37552 11.3611 1.66356 7.12324 4.38776 4.39904L4.81249 3.9743L7.30548 6.46453ZM7.19555 8.05367L4.83205 5.69278C2.66878 8.28518 2.804 12.147 5.2377 14.5807C7.47904 16.822 10.9316 17.1139 13.4884 15.4562C9.97991 14.7711 7.3129 11.7342 7.19555 8.05367ZM15.4562 16.5116C14.7711 20.0201 11.7342 22.6871 8.05366 22.8045L5.69278 25.168C8.28517 27.3312 12.147 27.196 14.5807 24.7623C16.822 22.521 17.1139 19.0684 15.4562 16.5116ZM16.5116 14.5438C20.0201 15.2289 22.6871 18.2658 22.8045 21.9463L25.168 24.3072C27.3312 21.7148 27.196 17.853 24.7623 15.4193C22.521 13.178 19.0684 12.8861 16.5116 14.5438ZM14.5438 13.4884C15.2289 9.97991 18.2658 7.3129 21.9463 7.19555L24.3072 4.83204C21.7148 2.66878 17.853 2.804 15.4193 5.2377C13.178 7.47903 12.8861 10.9316 14.5438 13.4884ZM14.9967 14.992L14.992 14.9967V15.0033L14.9967 15.008H15.0033L15.008 15.0033V14.9967L15.0033 14.992H14.9967Z" fill="black"/>
<path d="M44.796 24.09C43.812 24.09 42.948 23.886 42.204 23.478C41.46 23.058 40.878 22.488 40.458 21.768C40.038 21.036 39.828 20.202 39.828 19.266C39.828 18.33 40.026 17.502 40.422 16.782C40.83 16.062 41.382 15.498 42.078 15.09C42.786 14.67 43.578 14.46 44.454 14.46C45.342 14.46 46.128 14.664 46.812 15.072C47.508 15.468 48.054 16.032 48.45 16.764C48.846 17.484 49.044 18.318 49.044 19.266C49.044 19.326 49.038 19.392 49.026 19.464C49.026 19.524 49.026 19.59 49.026 19.662H40.8V18.708H48.342L47.838 19.086C47.838 18.402 47.688 17.796 47.388 17.268C47.1 16.728 46.704 16.308 46.2 16.008C45.696 15.708 45.114 15.558 44.454 15.558C43.806 15.558 43.224 15.708 42.708 16.008C42.192 16.308 41.79 16.728 41.502 17.268C41.214 17.808 41.07 18.426 41.07 19.122V19.32C41.07 20.04 41.226 20.676 41.538 21.228C41.862 21.768 42.306 22.194 42.87 22.506C43.446 22.806 44.1 22.956 44.832 22.956C45.408 22.956 45.942 22.854 46.434 22.65C46.938 22.446 47.37 22.134 47.73 21.714L48.45 22.542C48.03 23.046 47.502 23.43 46.866 23.694C46.242 23.958 45.552 24.09 44.796 24.09ZM51.6629 24V10.644H52.9409V24H51.6629ZM60.9198 24V11.4H63.8358V21.624H70.1538V24H60.9198ZM76.1579 24.144C75.1259 24.144 74.2079 23.928 73.4039 23.496C72.6119 23.064 71.9819 22.476 71.5139 21.732C71.0579 20.976 70.8299 20.118 70.8299 19.158C70.8299 18.186 71.0579 17.328 71.5139 16.584C71.9819 15.828 72.6119 15.24 73.4039 14.82C74.2079 14.388 75.1259 14.172 76.1579 14.172C77.1779 14.172 78.0899 14.388 78.8939 14.82C79.6979 15.24 80.3279 15.822 80.7839 16.566C81.2399 17.31 81.4679 18.174 81.4679 19.158C81.4679 20.118 81.2399 20.976 80.7839 21.732C80.3279 22.476 79.6979 23.064 78.8939 23.496C78.0899 23.928 77.1779 24.144 76.1579 24.144ZM76.1579 21.84C76.6259 21.84 77.0459 21.732 77.4179 21.516C77.7899 21.3 78.0839 20.994 78.2999 20.598C78.5159 20.19 78.6239 19.71 78.6239 19.158C78.6239 18.594 78.5159 18.114 78.2999 17.718C78.0839 17.322 77.7899 17.016 77.4179 16.8C77.0459 16.584 76.6259 16.476 76.1579 16.476C75.6899 16.476 75.2699 16.584 74.8979 16.8C74.5259 17.016 74.2259 17.322 73.9979 17.718C73.7819 18.114 73.6739 18.594 73.6739 19.158C73.6739 19.71 73.7819 20.19 73.9979 20.598C74.2259 20.994 74.5259 21.3 74.8979 21.516C75.2699 21.732 75.6899 21.84 76.1579 21.84ZM87.3048 24.144C86.1648 24.144 85.2768 23.856 84.6408 23.28C84.0048 22.692 83.6868 21.822 83.6868 20.67V12.174H86.4948V20.634C86.4948 21.042 86.6028 21.36 86.8188 21.588C87.0348 21.804 87.3288 21.912 87.7008 21.912C88.1448 21.912 88.5228 21.792 88.8348 21.552L89.5908 23.532C89.3028 23.736 88.9548 23.892 88.5468 24C88.1508 24.096 87.7368 24.144 87.3048 24.144ZM82.1928 16.476V14.316H88.9068V16.476H82.1928ZM95.2531 24.144C94.4491 24.144 93.7291 23.988 93.0931 23.676C92.4691 23.364 91.9831 22.89 91.6351 22.254C91.2871 21.606 91.1131 20.784 91.1131 19.788V14.316H93.9211V19.374C93.9211 20.178 94.0891 20.772 94.4251 21.156C94.7731 21.528 95.2591 21.714 95.8831 21.714C96.3151 21.714 96.6991 21.624 97.0351 21.444C97.3711 21.252 97.6351 20.964 97.8271 20.58C98.0191 20.184 98.1151 19.692 98.1151 19.104V14.316H100.923V24H98.2591V21.336L98.7451 22.11C98.4211 22.782 97.9411 23.292 97.3051 23.64C96.6811 23.976 95.9971 24.144 95.2531 24.144ZM106.783 24.144C105.955 24.144 105.157 24.048 104.389 23.856C103.633 23.652 103.033 23.4 102.589 23.1L103.525 21.084C103.969 21.36 104.491 21.588 105.091 21.768C105.703 21.936 106.303 22.02 106.891 22.02C107.539 22.02 107.995 21.942 108.259 21.786C108.535 21.63 108.673 21.414 108.673 21.138C108.673 20.91 108.565 20.742 108.349 20.634C108.145 20.514 107.869 20.424 107.521 20.364C107.173 20.304 106.789 20.244 106.369 20.184C105.961 20.124 105.547 20.046 105.127 19.95C104.707 19.842 104.323 19.686 103.975 19.482C103.627 19.278 103.345 19.002 103.129 18.654C102.925 18.306 102.823 17.856 102.823 17.304C102.823 16.692 102.997 16.152 103.345 15.684C103.705 15.216 104.221 14.85 104.893 14.586C105.565 14.31 106.369 14.172 107.305 14.172C107.965 14.172 108.637 14.244 109.321 14.388C110.005 14.532 110.575 14.742 111.031 15.018L110.095 17.016C109.627 16.74 109.153 16.554 108.673 16.458C108.205 16.35 107.749 16.296 107.305 16.296C106.681 16.296 106.225 16.38 105.937 16.548C105.649 16.716 105.505 16.932 105.505 17.196C105.505 17.436 105.607 17.616 105.811 17.736C106.027 17.856 106.309 17.952 106.657 18.024C107.005 18.096 107.383 18.162 107.791 18.222C108.211 18.27 108.631 18.348 109.051 18.456C109.471 18.564 109.849 18.72 110.185 18.924C110.533 19.116 110.815 19.386 111.031 19.734C111.247 20.07 111.355 20.514 111.355 21.066C111.355 21.666 111.175 22.2 110.815 22.668C110.455 23.124 109.933 23.484 109.249 23.748C108.577 24.012 107.755 24.144 106.783 24.144Z" fill="black"/>
</svg>
